<?xml version="1.0" encoding="UTF-8" standalone="no"?>
<!-- Created with Inkscape (http://www.inkscape.org/) -->

<svg
   width="48"
   height="48"
   viewBox="0 0 12.7 12.7"
   version="1.1"
   id="svg5"
   sodipodi:docname="se_logo.svg"
   inkscape:version="1.1.2 (0a00cf5339, 2022-02-04)"
   xmlns:inkscape="http://www.inkscape.org/namespaces/inkscape"
   xmlns:sodipodi="http://sodipodi.sourceforge.net/DTD/sodipodi-0.dtd"
   xmlns:xlink="http://www.w3.org/1999/xlink"
   xmlns="http://www.w3.org/2000/svg"
   xmlns:svg="http://www.w3.org/2000/svg">
  <sodipodi:namedview
     id="namedview7"
     pagecolor="#000000"
     bordercolor="#666666"
     borderopacity="1.0"
     inkscape:pageshadow="2"
     inkscape:pageopacity="0"
     inkscape:pagecheckerboard="true"
     inkscape:document-units="mm"
     showgrid="false"
     units="px"
     inkscape:zoom="1.4142136"
     inkscape:cx="38.183766"
     inkscape:cy="37.123106"
     inkscape:window-width="1014"
     inkscape:window-height="1080"
     inkscape:window-x="2560"
     inkscape:window-y="0"
     inkscape:window-maximized="0"
     inkscape:current-layer="g1771" />
  <defs
     id="defs2">
    <rect
       id="rect4827"
       height="25.664583"
       width="44.053123"
       y="205.71873"
       x="292.10001" />
    <linearGradient
       id="linearGradient2595"
       inkscape:collect="always">
      <stop
         id="stop2591"
         offset="0"
         style="stop-color:#ff5e00;stop-opacity:1" />
      <stop
         id="stop2593"
         offset="1"
         style="stop-color:#000000;stop-opacity:0" />
    </linearGradient>
    <linearGradient
       id="linearGradient1673"
       inkscape:collect="always">
      <stop
         id="stop1669"
         offset="0"
         style="stop-color:#101579;stop-opacity:1" />
      <stop
         id="stop1671"
         offset="1"
         style="stop-color:#1081ef;stop-opacity:1" />
    </linearGradient>
    <rect
       id="rect1331"
       height="493.91409"
       width="618.14093"
       y="332.8222"
       x="-851.62762" />
    <rect
       x="-407.10495"
       y="113.55428"
       width="114.31118"
       height="24.134438"
       id="rect1933-3" />
    <rect
       x="-407.10495"
       y="113.55428"
       width="114.31118"
       height="24.134438"
       id="rect3151" />
    <linearGradient
       inkscape:collect="always"
       xlink:href="#linearGradient1673"
       id="linearGradient1433"
       gradientUnits="userSpaceOnUse"
       gradientTransform="matrix(15.99984,0,0,15.99984,-20673.938,-12434.903)"
       x1="1257.9026"
       y1="821.75055"
       x2="1257.9026"
       y2="815.75092" />
    <rect
       x="-851.62762"
       y="332.8222"
       width="618.14093"
       height="493.91409"
       id="rect1339" />
    <rect
       id="rect1345"
       height="493.91409"
       width="618.14093"
       y="332.8222"
       x="-851.62762" />
    <rect
       id="rect1339-4"
       height="493.91409"
       width="618.14093"
       y="332.8222"
       x="-851.62762" />
    <rect
       id="rect1425"
       height="493.91409"
       width="618.14093"
       y="332.8222"
       x="-851.62762" />
    <rect
       x="-851.62762"
       y="332.8222"
       width="618.14093"
       height="493.91409"
       id="rect1339-4-2" />
    <rect
       x="-851.62762"
       y="332.8222"
       width="618.14093"
       height="493.91409"
       id="rect1458" />
    <rect
       x="-851.62762"
       y="332.8222"
       width="618.14093"
       height="493.91409"
       id="rect1339-4-9" />
    <rect
       x="-851.62762"
       y="332.8222"
       width="618.14093"
       height="493.91409"
       id="rect1496" />
    <rect
       x="-851.62762"
       y="332.8222"
       width="618.14093"
       height="493.91409"
       id="rect1339-4-8" />
    <rect
       x="-851.62762"
       y="332.8222"
       width="618.14093"
       height="493.91409"
       id="rect1533" />
    <rect
       id="rect1339-4-9-6"
       height="493.91409"
       width="618.14093"
       y="332.8222"
       x="-851.62762" />
    <rect
       id="rect1536"
       height="493.91409"
       width="618.14093"
       y="332.8222"
       x="-851.62762" />
    <rect
       id="rect1339-4-9-5"
       height="493.91409"
       width="618.14093"
       y="332.8222"
       x="-851.62762" />
    <rect
       id="rect1649"
       height="493.91409"
       width="618.14093"
       y="332.8222"
       x="-851.62762" />
    <linearGradient
       inkscape:collect="always"
       id="linearGradient1673-0">
      <stop
         style="stop-color:#108179;stop-opacity:1"
         offset="0"
         id="stop1669-7" />
      <stop
         style="stop-color:#0077c3;stop-opacity:1"
         offset="1"
         id="stop1671-4" />
    </linearGradient>
    <rect
       x="-851.62762"
       y="332.8222"
       width="618.14093"
       height="493.91409"
       id="rect1339-4-1" />
    <rect
       x="-851.62762"
       y="332.8222"
       width="618.14093"
       height="493.91409"
       id="rect1782" />
    <rect
       id="rect1806"
       height="493.91409"
       width="618.14093"
       y="332.8222"
       x="-851.62762" />
    <rect
       x="-851.62762"
       y="332.8222"
       width="618.14093"
       height="493.91409"
       id="rect1814" />
    <rect
       id="rect1890"
       height="493.91409"
       width="618.14093"
       y="332.8222"
       x="-851.62762" />
    <rect
       x="-851.62762"
       y="332.8222"
       width="618.14093"
       height="493.91409"
       id="rect1890-5" />
    <rect
       x="-851.62762"
       y="332.8222"
       width="618.14093"
       height="493.91409"
       id="rect1901" />
    <rect
       id="rect2003"
       height="493.91409"
       width="618.14093"
       y="332.8222"
       x="-851.62762" />
    <rect
       x="-851.62762"
       y="332.8222"
       width="618.14093"
       height="493.91409"
       id="rect2005" />
    <linearGradient
       y2="386.94241"
       x2="732.57959"
       y1="251.47574"
       x1="732.57959"
       gradientTransform="matrix(0.5,0,0,0.5,-298.19479,-351.08324)"
       gradientUnits="userSpaceOnUse"
       id="linearGradient2007"
       xlink:href="#linearGradient1673-0"
       inkscape:collect="always" />
    <rect
       id="rect2057"
       height="493.91409"
       width="618.14093"
       y="332.8222"
       x="-851.62762" />
    <rect
       x="-851.62762"
       y="332.8222"
       width="618.14093"
       height="493.91409"
       id="rect2059" />
    <rect
       id="rect1890-5-8"
       height="493.91409"
       width="618.14093"
       y="332.8222"
       x="-851.62762" />
    <rect
       id="rect2074"
       height="493.91409"
       width="618.14093"
       y="332.8222"
       x="-851.62762" />
    <rect
       id="rect2191"
       height="493.91409"
       width="618.14093"
       y="332.8222"
       x="-851.62762" />
    <rect
       x="-851.62762"
       y="332.8222"
       width="618.14093"
       height="493.91409"
       id="rect2193" />
    <linearGradient
       y2="386.94241"
       x2="732.57959"
       y1="116.00907"
       x1="732.57959"
       gradientTransform="matrix(0.5,0,0,0.5,-298.19479,-351.08324)"
       gradientUnits="userSpaceOnUse"
       id="linearGradient2195"
       xlink:href="#linearGradient2595"
       inkscape:collect="always" />
    <rect
       id="rect1339-4-2-1"
       height="493.91409"
       width="618.14093"
       y="332.8222"
       x="-851.62762" />
    <rect
       id="rect2214"
       height="493.91409"
       width="618.14093"
       y="332.8222"
       x="-851.62762" />
    <rect
       x="-851.62762"
       y="332.8222"
       width="618.14093"
       height="493.91409"
       id="rect1890-3" />
    <rect
       x="-851.62762"
       y="332.8222"
       width="618.14093"
       height="493.91409"
       id="rect2244" />
    <rect
       id="rect1890-3-8"
       height="493.91409"
       width="618.14093"
       y="332.8222"
       x="-851.62762" />
    <rect
       id="rect2275"
       height="493.91409"
       width="618.14093"
       y="332.8222"
       x="-851.62762" />
    <rect
       id="rect2310"
       height="493.91409"
       width="618.14093"
       y="332.8222"
       x="-851.62762" />
    <rect
       x="-851.62762"
       y="332.8222"
       width="618.14093"
       height="493.91409"
       id="rect2312" />
    <rect
       x="-851.62762"
       y="332.8222"
       width="618.14093"
       height="493.91409"
       id="rect2310-5" />
    <rect
       x="-851.62762"
       y="332.8222"
       width="618.14093"
       height="493.91409"
       id="rect2323" />
    <rect
       id="rect2312-4"
       height="493.91409"
       width="618.14093"
       y="332.8222"
       x="-851.62762" />
    <rect
       id="rect2326"
       height="493.91409"
       width="618.14093"
       y="332.8222"
       x="-851.62762" />
    <rect
       id="rect2310-5-8"
       height="493.91409"
       width="618.14093"
       y="332.8222"
       x="-851.62762" />
    <rect
       id="rect2374"
       height="493.91409"
       width="618.14093"
       y="332.8222"
       x="-851.62762" />
    <rect
       x="-851.62762"
       y="332.8222"
       width="618.14093"
       height="493.91409"
       id="rect2312-4-2" />
    <rect
       x="-851.62762"
       y="332.8222"
       width="618.14093"
       height="493.91409"
       id="rect2377" />
    <rect
       x="-851.62762"
       y="332.8222"
       width="618.14093"
       height="493.91409"
       id="rect2310-4" />
    <rect
       x="-851.62762"
       y="332.8222"
       width="618.14093"
       height="493.91409"
       id="rect2440" />
    <rect
       x="-851.62762"
       y="332.8222"
       width="618.14093"
       height="493.91409"
       id="rect2310-5-8-9" />
    <rect
       x="-851.62762"
       y="332.8222"
       width="618.14093"
       height="493.91409"
       id="rect2476" />
    <rect
       id="rect2312-4-2-6"
       height="493.91409"
       width="618.14093"
       y="332.8222"
       x="-851.62762" />
    <rect
       id="rect2479"
       height="493.91409"
       width="618.14093"
       y="332.8222"
       x="-851.62762" />
    <rect
       x="-851.62762"
       y="332.8222"
       width="618.14093"
       height="493.91409"
       id="rect2577" />
    <rect
       id="rect2579"
       height="493.91409"
       width="618.14093"
       y="332.8222"
       x="-851.62762" />
    <rect
       id="rect2581"
       height="493.91409"
       width="618.14093"
       y="332.8222"
       x="-851.62762" />
    <rect
       x="-851.62762"
       y="332.8222"
       width="618.14093"
       height="493.91409"
       id="rect2583" />
    <rect
       id="rect1890-3-2"
       height="493.91409"
       width="618.14093"
       y="332.8222"
       x="-851.62762" />
    <rect
       id="rect2701"
       height="493.91409"
       width="618.14093"
       y="332.8222"
       x="-851.62762" />
    <rect
       x="-851.62762"
       y="332.8222"
       width="618.14093"
       height="493.91409"
       id="rect1890-3-8-9" />
    <rect
       x="-851.62762"
       y="332.8222"
       width="618.14093"
       height="493.91409"
       id="rect2704" />
    <rect
       x="-851.62762"
       y="332.8222"
       width="618.14093"
       height="493.91409"
       id="rect1890-3-2-2" />
    <rect
       x="-851.62762"
       y="332.8222"
       width="618.14093"
       height="493.91409"
       id="rect2766" />
    <rect
       id="rect1890-3-8-9-2"
       height="493.91409"
       width="618.14093"
       y="332.8222"
       x="-851.62762" />
    <rect
       id="rect2796"
       height="493.91409"
       width="618.14093"
       y="332.8222"
       x="-851.62762" />
    <rect
       id="rect2310-5-87"
       height="493.91409"
       width="618.14093"
       y="332.8222"
       x="-851.62762" />
    <rect
       id="rect2826"
       height="493.91409"
       width="618.14093"
       y="332.8222"
       x="-851.62762" />
    <rect
       x="-851.62762"
       y="332.8222"
       width="618.14093"
       height="493.91409"
       id="rect2312-4-3" />
    <rect
       x="-851.62762"
       y="332.8222"
       width="618.14093"
       height="493.91409"
       id="rect2829" />
    <rect
       id="rect1890-3-2-2-1"
       height="493.91409"
       width="618.14093"
       y="332.8222"
       x="-851.62762" />
    <rect
       id="rect2907"
       height="493.91409"
       width="618.14093"
       y="332.8222"
       x="-851.62762" />
    <rect
       x="-851.62762"
       y="332.8222"
       width="618.14093"
       height="493.91409"
       id="rect1890-3-8-9-2-2" />
    <rect
       x="-851.62762"
       y="332.8222"
       width="618.14093"
       height="493.91409"
       id="rect2937" />
    <rect
       x="-851.62762"
       y="332.8222"
       width="618.14093"
       height="493.91409"
       id="rect1890-3-2-7" />
    <rect
       x="-851.62762"
       y="332.8222"
       width="618.14093"
       height="493.91409"
       id="rect3070" />
    <rect
       id="rect1890-3-8-9-3"
       height="493.91409"
       width="618.14093"
       y="332.8222"
       x="-851.62762" />
    <rect
       id="rect3073"
       height="493.91409"
       width="618.14093"
       y="332.8222"
       x="-851.62762" />
    <rect
       id="rect1339-4-2-6"
       height="493.91409"
       width="618.14093"
       y="332.8222"
       x="-851.62762" />
    <rect
       id="rect3464"
       height="493.91409"
       width="618.14093"
       y="332.8222"
       x="-851.62762" />
    <rect
       x="-851.62762"
       y="332.8222"
       width="618.14093"
       height="493.91409"
       id="rect1339-4-2-6-4" />
    <rect
       x="-851.62762"
       y="332.8222"
       width="618.14093"
       height="493.91409"
       id="rect3550" />
    <rect
       x="-851.62762"
       y="332.8222"
       width="618.14093"
       height="493.91409"
       id="rect1339-4-9-5-1" />
    <rect
       x="-851.62762"
       y="332.8222"
       width="618.14093"
       height="493.91409"
       id="rect3580" />
    <rect
       id="rect1339-4-9-5-1-1"
       height="493.91409"
       width="618.14093"
       y="332.8222"
       x="-851.62762" />
    <rect
       id="rect3614"
       height="493.91409"
       width="618.14093"
       y="332.8222"
       x="-851.62762" />
    <rect
       x="-851.62762"
       y="332.8222"
       width="618.14093"
       height="493.91409"
       id="rect1339-4-9-5-1-1-6" />
    <rect
       x="-851.62762"
       y="332.8222"
       width="618.14093"
       height="493.91409"
       id="rect4087" />
    <rect
       x="-851.62762"
       y="332.8222"
       width="618.14093"
       height="493.91409"
       id="rect1339-4-2-1-8" />
    <rect
       x="-851.62762"
       y="332.8222"
       width="618.14093"
       height="493.91409"
       id="rect4546" />
    <rect
       id="rect1339-4-2-1-8-1"
       height="493.91409"
       width="618.14093"
       y="332.8222"
       x="-851.62762" />
    <rect
       id="rect4610"
       height="493.91409"
       width="618.14093"
       y="332.8222"
       x="-851.62762" />
    <rect
       x="-851.62762"
       y="332.8222"
       width="618.14093"
       height="493.91409"
       id="rect1339-4-2-6-0" />
    <rect
       x="-851.62762"
       y="332.8222"
       width="618.14093"
       height="493.91409"
       id="rect4640" />
    <linearGradient
       inkscape:collect="always"
       xlink:href="#linearGradient2595"
       id="linearGradient3285-9"
       gradientUnits="userSpaceOnUse"
       gradientTransform="matrix(1.8897638,0,0,-1.8897638,-44.402344,875.22961)"
       x1="732.57959"
       y1="116.00907"
       x2="732.57959"
       y2="386.94241" />
    <rect
       x="-851.62762"
       y="332.8222"
       width="618.14093"
       height="493.91409"
       id="rect2191-8" />
    <rect
       x="-851.62762"
       y="332.8222"
       width="618.14093"
       height="493.91409"
       id="rect4803" />
    <rect
       x="292.10001"
       y="205.71873"
       width="44.053123"
       height="25.664583"
       id="rect4827-3" />
    <rect
       x="292.10001"
       y="205.71873"
       width="44.053123"
       height="25.664583"
       id="rect4855" />
    <rect
       x="-851.62762"
       y="332.8222"
       width="618.14093"
       height="493.91409"
       id="rect2191-1" />
    <rect
       x="-851.62762"
       y="332.8222"
       width="618.14093"
       height="493.91409"
       id="rect4884" />
    <rect
       id="rect2193-9"
       height="493.91409"
       width="618.14093"
       y="332.8222"
       x="-851.62762" />
    <rect
       id="rect4913"
       height="493.91409"
       width="618.14093"
       y="332.8222"
       x="-851.62762" />
    <rect
       x="-851.62762"
       y="332.8222"
       width="618.14093"
       height="493.91409"
       id="rect2191-0" />
    <rect
       x="-851.62762"
       y="332.8222"
       width="618.14093"
       height="493.91409"
       id="rect4947" />
    <rect
       id="rect4827-3-0"
       height="25.664583"
       width="44.053123"
       y="205.71873"
       x="292.10001" />
    <rect
       id="rect5058"
       height="25.664583"
       width="44.053123"
       y="205.71873"
       x="292.10001" />
    <rect
       id="rect2191-1-4"
       height="493.91409"
       width="618.14093"
       y="332.8222"
       x="-851.62762" />
    <rect
       id="rect5061"
       height="493.91409"
       width="618.14093"
       y="332.8222"
       x="-851.62762" />
    <rect
       x="292.10001"
       y="205.71873"
       width="44.053123"
       height="25.664583"
       id="rect4827-4" />
    <rect
       x="292.10001"
       y="205.71873"
       width="44.053123"
       height="25.664583"
       id="rect5071" />
    <rect
       x="-851.62762"
       y="332.8222"
       width="618.14093"
       height="493.91409"
       id="rect2193-9-1" />
    <rect
       x="-851.62762"
       y="332.8222"
       width="618.14093"
       height="493.91409"
       id="rect5074" />
    <rect
       id="rect1890-56"
       height="493.91409"
       width="618.14093"
       y="332.8222"
       x="-851.62762" />
    <rect
       id="rect5077"
       height="493.91409"
       width="618.14093"
       y="332.8222"
       x="-851.62762" />
    <rect
       id="rect5214"
       height="493.91409"
       width="618.14093"
       y="332.8222"
       x="-851.62762" />
    <rect
       x="-851.62762"
       y="332.8222"
       width="618.14093"
       height="493.91409"
       id="rect5214-3" />
    <rect
       x="-851.62762"
       y="332.8222"
       width="618.14093"
       height="493.91409"
       id="rect5249" />
    <rect
       x="-851.62762"
       y="332.8222"
       width="618.14093"
       height="493.91409"
       id="rect1890-56-2" />
    <rect
       x="-851.62762"
       y="332.8222"
       width="618.14093"
       height="493.91409"
       id="rect5337" />
    <rect
       x="-851.62762"
       y="332.8222"
       width="618.14093"
       height="493.91409"
       id="rect1339-4-2-1-8-1-1" />
    <rect
       x="-851.62762"
       y="332.8222"
       width="618.14093"
       height="493.91409"
       id="rect5492" />
    <rect
       x="-851.62762"
       y="332.8222"
       width="618.14093"
       height="493.91409"
       id="rect5630" />
    <rect
       x="-851.62762"
       y="332.8222"
       width="618.14093"
       height="493.91409"
       id="rect5653" />
    <rect
       id="rect5677"
       height="493.91409"
       width="618.14093"
       y="332.8222"
       x="-851.62762" />
    <rect
       id="rect5688"
       height="493.91409"
       width="618.14093"
       y="332.8222"
       x="-851.62762" />
  </defs>
  <g
     inkscape:label="Layer 1"
     inkscape:groupmode="layer"
     id="layer1">
    <g
       transform="translate(-62.607359,-260.61418)"
       id="layer1-3"
       inkscape:label="Layer 1">
      <g
         transform="translate(-80.592835,25.388011)"
         id="g1771">
        <g
           transform="matrix(0.1757675,0,0,0.1757675,116.59655,192.0621)"
           id="g1762">
          <path
             sodipodi:nodetypes="ccccccccccccccccccc"
             inkscape:connector-curvature="0"
             id="path2653-2-0"
             d="m 187.4838,259.12252 -19.55355,11.28867 -0.001,5.64569 26.88726,15.52317 -7.33258,4.23359 -12.2221,-7.05599 v -2.8225 l -7.33258,-4.23348 0.001,11.28709 19.55355,11.28867 19.55241,-11.28867 10e-4,-5.64242 -26.88725,-15.52305 7.33371,-4.23348 12.22096,7.05587 v 2.82251 l 7.33258,4.23348 v -11.29568 z"
             style="color:#000000;font-style:normal;font-variant:normal;font-weight:normal;font-stretch:normal;font-size:medium;line-height:normal;font-family:sans-serif;font-variant-ligatures:normal;font-variant-position:normal;font-variant-caps:normal;font-variant-numeric:normal;font-variant-alternates:normal;font-feature-settings:normal;text-indent:0;text-align:start;text-decoration:none;text-decoration-line:none;text-decoration-style:solid;text-decoration-color:#000000;letter-spacing:normal;word-spacing:normal;text-transform:none;writing-mode:lr-tb;direction:ltr;text-orientation:mixed;dominant-baseline:auto;baseline-shift:baseline;text-anchor:start;white-space:normal;shape-padding:0;clip-rule:nonzero;display:inline;overflow:visible;visibility:visible;isolation:auto;mix-blend-mode:normal;color-interpolation:sRGB;color-interpolation-filters:linearRGB;solid-color:#000000;solid-opacity:1;vector-effect:none;fill:#ffffff;fill-opacity:1;fill-rule:nonzero;stroke:none;stroke-width:0.598802px;stroke-linecap:square;stroke-linejoin:miter;stroke-miterlimit:4;stroke-dasharray:none;stroke-dashoffset:0;stroke-opacity:1;color-rendering:auto;image-rendering:auto;shape-rendering:auto;text-rendering:auto;enable-background:accumulate" />
          <path
             sodipodi:nodetypes="ccccccccc"
             inkscape:connector-curvature="0"
             id="path2655-9-3"
             d="m 187.48592,281.70336 4.8877,-2.82239 14.66561,8.46718 2.3e-4,5.64479 -19.55242,11.28867 -0.003,-8.46797 7.33258,-4.23359 -7.33275,-4.2328 z"
             style="opacity:0.3;fill:#000000;stroke:none;stroke-width:0.186691px;stroke-linecap:butt;stroke-linejoin:miter;stroke-opacity:1" />
          <path
             style="opacity:0.15;fill:#000000;stroke:none;stroke-width:0.186691px;stroke-linecap:butt;stroke-linejoin:miter;stroke-opacity:1"
             d="m 187.4851,281.70336 -19.55411,-11.28958 2.5e-4,5.64479 19.55242,11.28868 z"
             id="path2657-8-9"
             inkscape:connector-curvature="0"
             sodipodi:nodetypes="ccccc" />
          <path
             style="opacity:0.15;fill:#000000;stroke:none;stroke-width:0.186691px;stroke-linecap:butt;stroke-linejoin:miter;stroke-opacity:1"
             d="m 187.48383,295.81364 -12.2221,-7.05599 v -2.8225 l -7.33258,-4.23348 0.001,11.28709 19.55242,11.28867 z"
             id="path2657-4-8-2"
             inkscape:connector-curvature="0"
             sodipodi:nodetypes="ccccccc" />
          <path
             style="opacity:0.3;fill:#000000;stroke:none;stroke-width:0.186691px;stroke-linecap:butt;stroke-linejoin:miter;stroke-opacity:1"
             d="m 199.70476,274.64568 7.33258,-4.23969 v 11.29568 l -7.33258,-4.23348 z"
             id="path3036-5-1-1-7-6-0-6-7-1-4-2"
             inkscape:connector-curvature="0"
             sodipodi:nodetypes="ccccc"
             inkscape:export-xdpi="546.13"
             inkscape:export-ydpi="546.13" />
        </g>
      </g>
    </g>
  </g>
</svg>
